<?xml version="1.0" encoding="UTF-8" standalone="no"?>
<svg
   xmlns:dc="http://purl.org/dc/elements/1.1/"
   xmlns:cc="http://creativecommons.org/ns#"
   xmlns:rdf="http://www.w3.org/1999/02/22-rdf-syntax-ns#"
   xmlns:svg="http://www.w3.org/2000/svg"
   xmlns="http://www.w3.org/2000/svg"
   xmlns:sodipodi="http://sodipodi.sourceforge.net/DTD/sodipodi-0.dtd"
   xmlns:inkscape="http://www.inkscape.org/namespaces/inkscape"
   version="1.1"
   width="24"
   height="24"
   viewBox="0 0 24.00 24.00"
   enable-background="new 0 0 24.00 24.00"
   xml:space="preserve"
   id="svg3366"
   inkscape:version="0.91 r13725"
   sodipodi:docname="edit-network.svg"><metadata
     id="metadata3374"><rdf:RDF><cc:Work
         rdf:about=""><dc:format>image/svg+xml</dc:format><dc:type
           rdf:resource="http://purl.org/dc/dcmitype/StillImage" /><dc:title></dc:title></cc:Work></rdf:RDF></metadata><defs
     id="defs3372" /><sodipodi:namedview
     pagecolor="#ffffff"
     bordercolor="#666666"
     borderopacity="1"
     objecttolerance="10"
     gridtolerance="10"
     guidetolerance="10"
     inkscape:pageopacity="0"
     inkscape:pageshadow="2"
     inkscape:window-width="1680"
     inkscape:window-height="1027"
     id="namedview3370"
     showgrid="false"
     inkscape:snap-page="false"
     inkscape:zoom="9.8333333"
     inkscape:cx="-5.8474576"
     inkscape:cy="12"
     inkscape:window-x="-8"
     inkscape:window-y="-8"
     inkscape:window-maximized="1"
     inkscape:current-layer="svg3366" /><path
     id="path3338"
     style="fill:#000000;fill-opacity:1;stroke-width:0.2;stroke-linejoin:round"
     d="m 15.869669,7.796024 c 0.173775,-0.1738018 0.173775,-0.4551253 0,-0.6284338 L 14.831463,6.1293848 c -0.17333,-0.1738017 -0.454659,-0.1738017 -0.628433,0 l -0.81421,0.8141956 1.66664,1.6666401 M 8,12.33236 8,13.999 l 1.66664,0 L 14.584357,9.0813192 12.917717,7.4146791 8,12.33236 Z M 17,3 c 1.103,0 2,0.896 2,2 l 0,10 c 0,1.104 -0.897,2 -2,2 l -4,0 0,2 1,0 c 0.5523,0 1,0.4477 1,1 l 7,0 0,2 -7,0 c 0,0.5523 -0.4477,1 -1,1 l -4,0 C 9.44772,23 9.00001,22.5523 9.00001,22 L 2,22 2,20 9.00001,20 c 0,-0.5523 0.44771,-1 0.99999,-1 l 1,0 0,-2 -4,0 C 5.894,17 5,16.104 5,15 L 5,5 C 5,3.896 5.894,3 7,3 l 10,0 z" /></svg>